<?xml version="1.0" encoding="UTF-8" standalone="no" ?>
<!DOCTYPE svg PUBLIC "-//W3C//DTD SVG 1.1//EN" "http://www.w3.org/Graphics/SVG/1.1/DTD/svg11.dtd">
<svg xmlns="http://www.w3.org/2000/svg" xmlns:xlink="http://www.w3.org/1999/xlink" version="1.1" width="1080" height="1080" viewBox="0 0 1080 1080" xml:space="preserve">
<desc>Created with Fabric.js 5.2.4</desc>
<defs>
</defs>
<g transform="matrix(1 0 0 1 540 540)" id="b367a069-52cf-4b76-a939-4d121e77920c"  >
<rect style="stroke: none; stroke-width: 1; stroke-dasharray: none; stroke-linecap: butt; stroke-dashoffset: 0; stroke-linejoin: miter; stroke-miterlimit: 4; fill: rgb(255,255,255); fill-rule: nonzero; opacity: 1; visibility: hidden;" vector-effect="non-scaling-stroke"  x="-540" y="-540" rx="0" ry="0" width="1080" height="1080" />
</g>
<g transform="matrix(1 0 0 1 540 540)" id="4b398660-ef79-4270-8cf0-a10b8f152a44"  >
</g>
<g transform="matrix(1 0 0 1 521.49 540)"  >
<g style="" vector-effect="non-scaling-stroke"   >
		<g transform="matrix(1 0 0 1 -46.36 0)" clip-path="url(#CLIPPATH_29)"  >
<clipPath id="CLIPPATH_29" >
	<rect transform="matrix(1 0 0 1 46.14 3.99)" id="clip0_33_11" x="-107.5" y="-50" rx="0" ry="0" width="215" height="100" />
</clipPath>
<path style="stroke: rgb(152,65,255); stroke-width: 7; stroke-dasharray: none; stroke-linecap: butt; stroke-dashoffset: 0; stroke-linejoin: miter; stroke-miterlimit: 4; fill: rgb(0,0,0); fill-opacity: 0; fill-rule: nonzero; opacity: 1;" vector-effect="non-scaling-stroke"  transform=" translate(-61.36, -46.01)" d="M 34.0365 16.1755 L 31.5728 10.2447 L 37.8922 11.3888 C 43.9679 12.4888 50.9975 15.846 56.045 21.1866 C 59.5373 15.8693 63.7559 11.0646 68.9047 6.93937 L 74.2349 11.2135 C 72.5523 14.6402 71.7886 17.3758 71.4993 20.4812 C 76.1492 18.9636 81.9748 18.0602 89.0386 18.4817 L 99.5359 19.1082 L 90.7569 24.8974 C 88.9177 26.1102 87.2995 27.2884 85.8878 28.4449 C 91.445 28.4366 97.4172 29.6643 104.388 32.1943 L 113.029 35.3309 L 104.49 38.7355 C 100.442 40.3494 97.59 42.3364 94.7482 44.9929 C 100.532 46.8621 105.948 50.0447 109.873 53.4557 L 116.821 59.4935 L 107.617 59.5973 C 102.804 59.6516 97.1356 59.786 92.2097 60.4371 C 94.3833 64.0995 95.8385 68.2546 96.6157 72.853 L 98.3349 83.0249 L 90.781 75.9992 C 85.3319 70.9311 78.5345 67.0815 70.2602 64.4911 L 66.6243 63.3528 C 63.7159 64.8435 60.8689 66.6075 58.0805 68.571 L 59.0603 69.4226 L 57.1458 69.2381 C 51.3024 73.4644 45.7168 78.5385 40.3617 83.772 L 39.0167 85.0865 L 37.1782 84.6903 C 34.4491 84.1023 32.0457 83.5097 29.8573 82.8234 L 28.6507 82.445 L 27.9646 81.3828 L 25.4638 77.511 L 25.3 77.2575 L 23.9085 77.1329 L 16.5553 76.475 L 15.7656 76.4044 L 15.0834 76.0003 C 14.1961 75.4746 13.2285 74.8917 12.215 74.281 C 11.2921 73.725 10.331 73.1459 9.35757 72.5662 L 5.89371 70.5033 L 8.42266 67.3636 C 13.7686 60.7265 19.8791 55.4888 25.3944 50.7613 C 26.436 49.8685 27.4563 48.9939 28.4463 48.1315 C 30.4441 41.0261 34.4674 34.8851 39.9193 30.2667 C 37.9551 25.5759 35.9909 20.8804 34.0365 16.1755 Z" stroke-linecap="round" />
</g>
		<g transform="matrix(1 0 0 1 8.03 -15.39)" clip-path="url(#CLIPPATH_30)"  >
<clipPath id="CLIPPATH_30" >
	<rect transform="matrix(1 0 0 1 -8.25 19.38)" id="clip0_33_11" x="-107.5" y="-50" rx="0" ry="0" width="215" height="100" />
</clipPath>
<path style="stroke: none; stroke-width: 1; stroke-dasharray: none; stroke-linecap: butt; stroke-dashoffset: 0; stroke-linejoin: miter; stroke-miterlimit: 4; fill: rgb(0,0,0); fill-opacity: 0; fill-rule: nonzero; opacity: 1;" vector-effect="non-scaling-stroke"  transform=" translate(-115.75, -30.63)" d="M 108.8 34.85 L 108.8 22 L 113.15 22 L 113.15 35.05 C 113.15 35.2333 113.242 35.325 113.425 35.325 L 118.075 35.325 C 118.258 35.325 118.35 35.2333 118.35 35.05 L 118.35 22 L 122.7 22 L 122.7 34.85 C 122.7 37.7833 121.233 39.25 118.3 39.25 L 113.2 39.25 C 110.267 39.25 108.8 37.7833 108.8 34.85 Z" stroke-linecap="round" />
</g>
		<g transform="matrix(1 0 0 1 26.13 -15.39)" clip-path="url(#CLIPPATH_31)"  >
<clipPath id="CLIPPATH_31" >
	<rect transform="matrix(1 0 0 1 -26.34 19.38)" id="clip0_33_11" x="-107.5" y="-50" rx="0" ry="0" width="215" height="100" />
</clipPath>
<path style="stroke: none; stroke-width: 1; stroke-dasharray: none; stroke-linecap: butt; stroke-dashoffset: 0; stroke-linejoin: miter; stroke-miterlimit: 4; fill: rgb(0,0,0); fill-opacity: 0; fill-rule: nonzero; opacity: 1;" vector-effect="non-scaling-stroke"  transform=" translate(-133.84, -30.63)" d="M 126.455 39.25 L 126.455 22 L 131.155 22 L 136.88 32 L 136.88 22 L 141.23 22 L 141.23 39.25 L 136.555 39.25 L 130.805 29.25 L 130.805 39.25 L 126.455 39.25 Z" stroke-linecap="round" />
</g>
		<g transform="matrix(1 0 0 1 39.59 -15.39)" clip-path="url(#CLIPPATH_32)"  >
<clipPath id="CLIPPATH_32" >
	<rect transform="matrix(1 0 0 1 -39.81 19.38)" id="clip0_33_11" x="-107.5" y="-50" rx="0" ry="0" width="215" height="100" />
</clipPath>
<path style="stroke: none; stroke-width: 1; stroke-dasharray: none; stroke-linecap: butt; stroke-dashoffset: 0; stroke-linejoin: miter; stroke-miterlimit: 4; fill: rgb(0,0,0); fill-opacity: 0; fill-rule: nonzero; opacity: 1;" vector-effect="non-scaling-stroke"  transform=" translate(-147.31, -30.63)" d="M 145.132 39.25 L 145.132 22 L 149.482 22 L 149.482 39.25 L 145.132 39.25 Z" stroke-linecap="round" />
</g>
		<g transform="matrix(1 0 0 1 52.37 -15.39)" clip-path="url(#CLIPPATH_33)"  >
<clipPath id="CLIPPATH_33" >
	<rect transform="matrix(1 0 0 1 -52.58 19.38)" id="clip0_33_11" x="-107.5" y="-50" rx="0" ry="0" width="215" height="100" />
</clipPath>
<path style="stroke: none; stroke-width: 1; stroke-dasharray: none; stroke-linecap: butt; stroke-dashoffset: 0; stroke-linejoin: miter; stroke-miterlimit: 4; fill: rgb(0,0,0); fill-opacity: 0; fill-rule: nonzero; opacity: 1;" vector-effect="non-scaling-stroke"  transform=" translate(-160.08, -30.63)" d="M 153.134 34.85 L 153.134 26.4 C 153.134 23.4667 154.6 22 157.534 22 L 164.584 22 L 166.534 23.5 L 166.534 25.925 L 157.759 25.925 C 157.575 25.925 157.484 26.0167 157.484 26.2 L 157.484 35.05 C 157.484 35.2333 157.575 35.325 157.759 35.325 L 162.684 35.325 L 162.684 32.425 L 159.859 32.425 L 159.859 28.5 L 167.034 28.5 L 167.034 39.25 L 157.534 39.25 C 154.6 39.25 153.134 37.7833 153.134 34.85 Z" stroke-linecap="round" />
</g>
		<g transform="matrix(1 0 0 1 64.88 -15.39)" clip-path="url(#CLIPPATH_34)"  >
<clipPath id="CLIPPATH_34" >
	<rect transform="matrix(1 0 0 1 -65.1 19.38)" id="clip0_33_11" x="-107.5" y="-50" rx="0" ry="0" width="215" height="100" />
</clipPath>
<path style="stroke: none; stroke-width: 1; stroke-dasharray: none; stroke-linecap: butt; stroke-dashoffset: 0; stroke-linejoin: miter; stroke-miterlimit: 4; fill: rgb(0,0,0); fill-opacity: 0; fill-rule: nonzero; opacity: 1;" vector-effect="non-scaling-stroke"  transform=" translate(-172.6, -30.63)" d="M 170.425 39.25 L 170.425 22 L 174.775 22 L 174.775 39.25 L 170.425 39.25 Z" stroke-linecap="round" />
</g>
		<g transform="matrix(1 0 0 1 78.35 -15.39)" clip-path="url(#CLIPPATH_35)"  >
<clipPath id="CLIPPATH_35" >
	<rect transform="matrix(1 0 0 1 -78.56 19.38)" id="clip0_33_11" x="-107.5" y="-50" rx="0" ry="0" width="215" height="100" />
</clipPath>
<path style="stroke: none; stroke-width: 1; stroke-dasharray: none; stroke-linecap: butt; stroke-dashoffset: 0; stroke-linejoin: miter; stroke-miterlimit: 4; fill: rgb(0,0,0); fill-opacity: 0; fill-rule: nonzero; opacity: 1;" vector-effect="non-scaling-stroke"  transform=" translate(-186.06, -30.63)" d="M 178.677 39.25 L 178.677 22 L 183.377 22 L 189.102 32 L 189.102 22 L 193.452 22 L 193.452 39.25 L 188.777 39.25 L 183.027 29.25 L 183.027 39.25 L 178.677 39.25 Z" stroke-linecap="round" />
</g>
		<g transform="matrix(1 0 0 1 95.67 -15.39)" clip-path="url(#CLIPPATH_36)"  >
<clipPath id="CLIPPATH_36" >
	<rect transform="matrix(1 0 0 1 -95.89 19.38)" id="clip0_33_11" x="-107.5" y="-50" rx="0" ry="0" width="215" height="100" />
</clipPath>
<path style="stroke: none; stroke-width: 1; stroke-dasharray: none; stroke-linecap: butt; stroke-dashoffset: 0; stroke-linejoin: miter; stroke-miterlimit: 4; fill: rgb(0,0,0); fill-opacity: 0; fill-rule: nonzero; opacity: 1;" vector-effect="non-scaling-stroke"  transform=" translate(-203.39, -30.63)" d="M 197.353 39.25 L 197.353 22 L 209.428 22 L 209.428 25.925 L 201.703 25.925 L 201.703 28.5 L 208.678 28.5 L 208.678 32.425 L 201.703 32.425 L 201.703 35.325 L 209.428 35.325 L 209.428 39.25 L 197.353 39.25 Z" stroke-linecap="round" />
</g>
		<g transform="matrix(1 0 0 1 -13.17 13.36)" clip-path="url(#CLIPPATH_37)"  >
<clipPath id="CLIPPATH_37" >
	<rect transform="matrix(1 0 0 1 12.96 -9.38)" id="clip0_33_11" x="-107.5" y="-50" rx="0" ry="0" width="215" height="100" />
</clipPath>
<path style="stroke: none; stroke-width: 1; stroke-dasharray: none; stroke-linecap: butt; stroke-dashoffset: 0; stroke-linejoin: miter; stroke-miterlimit: 4; fill: rgb(0,0,0); fill-opacity: 0; fill-rule: nonzero; opacity: 1;" vector-effect="non-scaling-stroke"  transform=" translate(-94.54, -59.38)" d="M 84.8719 70.4902 L 84.8719 66.7072 L 97.0009 66.7072 C 97.2869 66.7072 97.4299 66.5642 97.4299 66.2782 L 97.4299 63.6262 C 97.4299 63.2622 97.2739 63.0542 96.9619 63.0022 L 89.7469 61.5202 C 86.4969 60.8962 84.8719 58.7252 84.8719 55.0072 L 84.8719 52.7842 C 84.8719 48.2082 87.1599 45.9202 91.7359 45.9202 L 100.394 45.9202 L 103.436 48.2602 L 103.436 52.0432 L 92.0869 52.0432 C 91.8009 52.0432 91.6579 52.1862 91.6579 52.4722 L 91.6579 54.9682 C 91.6579 55.3062 91.8139 55.5142 92.1259 55.5922 L 99.341 56.9962 C 102.591 57.6722 104.216 59.8562 104.216 63.5482 L 104.216 65.9662 C 104.216 70.5422 101.928 72.8302 97.3519 72.8302 L 87.9139 72.8302 L 84.8719 70.4902 Z" stroke-linecap="round" />
</g>
		<g transform="matrix(1 0 0 1 12.25 16.29)" clip-path="url(#CLIPPATH_38)"  >
<clipPath id="CLIPPATH_38" >
	<rect transform="matrix(1 0 0 1 -12.46 -12.3)" id="clip0_33_11" x="-107.5" y="-50" rx="0" ry="0" width="215" height="100" />
</clipPath>
<path style="stroke: none; stroke-width: 1; stroke-dasharray: none; stroke-linecap: butt; stroke-dashoffset: 0; stroke-linejoin: miter; stroke-miterlimit: 4; fill: rgb(0,0,0); fill-opacity: 0; fill-rule: nonzero; opacity: 1;" vector-effect="non-scaling-stroke"  transform=" translate(-119.96, -62.3)" d="M 108.732 65.9662 L 108.732 52.7842 C 108.732 48.2082 111.02 45.9202 115.596 45.9202 L 124.332 45.9202 C 128.908 45.9202 131.196 48.2082 131.196 52.7842 L 131.196 65.9662 C 131.196 69.5022 129.844 71.6602 127.14 72.4402 L 129.636 77.3152 L 128.856 78.6802 L 122.967 78.6802 L 120.003 72.8302 L 115.596 72.8302 C 111.02 72.8302 108.732 70.5422 108.732 65.9662 Z M 115.518 66.2782 C 115.518 66.5642 115.661 66.7072 115.947 66.7072 L 123.981 66.7072 C 124.267 66.7072 124.41 66.5642 124.41 66.2782 L 124.41 52.4722 C 124.41 52.1862 124.267 52.0432 123.981 52.0432 L 115.947 52.0432 C 115.661 52.0432 115.518 52.1862 115.518 52.4722 L 115.518 66.2782 Z" stroke-linecap="round" />
</g>
		<g transform="matrix(1 0 0 1 39.78 13.36)" clip-path="url(#CLIPPATH_39)"  >
<clipPath id="CLIPPATH_39" >
	<rect transform="matrix(1 0 0 1 -40 -9.38)" id="clip0_33_11" x="-107.5" y="-50" rx="0" ry="0" width="215" height="100" />
</clipPath>
<path style="stroke: none; stroke-width: 1; stroke-dasharray: none; stroke-linecap: butt; stroke-dashoffset: 0; stroke-linejoin: miter; stroke-miterlimit: 4; fill: rgb(0,0,0); fill-opacity: 0; fill-rule: nonzero; opacity: 1;" vector-effect="non-scaling-stroke"  transform=" translate(-147.5, -59.38)" d="M 136.653 65.9662 L 136.653 45.9202 L 143.439 45.9202 L 143.439 66.2782 C 143.439 66.5642 143.582 66.7072 143.868 66.7072 L 151.122 66.7072 C 151.408 66.7072 151.551 66.5642 151.551 66.2782 L 151.551 45.9202 L 158.337 45.9202 L 158.337 65.9662 C 158.337 70.5422 156.049 72.8302 151.473 72.8302 L 143.517 72.8302 C 138.941 72.8302 136.653 70.5422 136.653 65.9662 Z" stroke-linecap="round" />
</g>
		<g transform="matrix(1 0 0 1 66.77 13.36)" clip-path="url(#CLIPPATH_40)"  >
<clipPath id="CLIPPATH_40" >
	<rect transform="matrix(1 0 0 1 -66.99 -9.38)" id="clip0_33_11" x="-107.5" y="-50" rx="0" ry="0" width="215" height="100" />
</clipPath>
<path style="stroke: none; stroke-width: 1; stroke-dasharray: none; stroke-linecap: butt; stroke-dashoffset: 0; stroke-linejoin: miter; stroke-miterlimit: 4; fill: rgb(0,0,0); fill-opacity: 0; fill-rule: nonzero; opacity: 1;" vector-effect="non-scaling-stroke"  transform=" translate(-174.49, -59.38)" d="M 161.815 71.5822 L 169.42 45.9202 L 179.56 45.9202 L 187.165 71.5822 L 186.346 72.8302 L 180.652 72.8302 L 179.326 68.0332 L 169.654 68.0332 L 168.328 72.8302 L 162.634 72.8302 L 161.815 71.5822 Z M 171.448 61.9102 L 177.532 61.9102 L 174.724 52.0432 L 174.256 52.0432 L 171.448 61.9102 Z" stroke-linecap="round" />
</g>
		<g transform="matrix(1 0 0 1 93.98 13.36)" clip-path="url(#CLIPPATH_41)"  >
<clipPath id="CLIPPATH_41" >
	<rect transform="matrix(1 0 0 1 -94.2 -9.38)" id="clip0_33_11" x="-107.5" y="-50" rx="0" ry="0" width="215" height="100" />
</clipPath>
<path style="stroke: none; stroke-width: 1; stroke-dasharray: none; stroke-linecap: butt; stroke-dashoffset: 0; stroke-linejoin: miter; stroke-miterlimit: 4; fill: rgb(0,0,0); fill-opacity: 0; fill-rule: nonzero; opacity: 1;" vector-effect="non-scaling-stroke"  transform=" translate(-201.7, -59.38)" d="M 190.854 72.8302 L 190.854 45.9202 L 200.916 45.9202 C 208.664 45.9202 212.538 49.7942 212.538 57.5422 L 212.538 61.2082 C 212.538 68.9562 208.664 72.8302 200.916 72.8302 L 190.854 72.8302 Z M 197.64 66.7072 L 201.306 66.7072 C 204.27 66.7072 205.752 65.2122 205.752 62.2222 L 205.752 56.5282 C 205.752 53.5382 204.27 52.0432 201.306 52.0432 L 197.64 52.0432 L 197.64 66.7072 Z" stroke-linecap="round" />
</g>
</g>
</g>
<g transform="matrix(1 0 0 1 558.74 518.04)" style="" id="969edde3-92ec-4546-8cc9-9d45ad2d1ae6"  >
		<text xml:space="preserve" font-family="Raleway" font-size="49" font-style="normal" font-weight="900" style="stroke: none; stroke-width: 1; stroke-dasharray: none; stroke-linecap: butt; stroke-dashoffset: 0; stroke-linejoin: miter; stroke-miterlimit: 4; fill: rgb(255,255,255); fill-rule: nonzero; opacity: 0.87; white-space: pre;" ><tspan x="-43.68" y="15.39" >MR.</tspan></text>
</g>
<g transform="matrix(1 0 0 1 626.42 560.14)" style="" id="f71921b4-c67e-4c50-ae34-34daaa16d651"  >
		<text xml:space="preserve" font-family="Raleway" font-size="45" font-style="normal" font-weight="900" style="stroke: none; stroke-width: 1; stroke-dasharray: none; stroke-linecap: butt; stroke-dashoffset: 0; stroke-linejoin: miter; stroke-miterlimit: 4; fill: rgb(255,255,255); fill-rule: nonzero; opacity: 1; white-space: pre;" ><tspan x="-128.12" y="14.14" >INVINCIBLE</tspan></text>
</g>
</svg>